<?xml version="1.0" encoding="utf-8"?>
<!-- Generator: Adobe Illustrator 18.1.1, SVG Export Plug-In . SVG Version: 6.00 Build 0)  -->
<svg version="1.1" id="Layer_1" xmlns="http://www.w3.org/2000/svg" xmlns:xlink="http://www.w3.org/1999/xlink" x="0px" y="0px"
	 viewBox="0 0 234.9 21.2" enable-background="new 0 0 234.9 21.2" xml:space="preserve">
<g>
	<path d="M17.8,13.3L20.2,0h5.1l-4.5,21.2h-5.3L12.6,9.1L9.8,21.2H4.5L0,0h5.1l2.4,13.3L10.4,0h4.3L17.8,13.3z"/>
	<path d="M40.4,12.2h-8.1v5.1h9.5v3.9H27.3V0h14.7v4h-9.5v4.5h8.1V12.2z"/>
	<path d="M56,17.3h-7l-1.2,4h-5.5L50.1,0h4.8l7.8,21.2h-5.5L56,17.3z M50.3,13.3h4.6L52.5,6L50.3,13.3z"/>
	<path d="M79.3,4h-6.4v17.3h-5.1V4h-6.3V0h17.8V4z"/>
	<path d="M99.2,21.2h-5.1v-8.9h-7.5v8.9h-5.1V0h5.1v8.4h7.5V0h5.1V21.2z"/>
	<path d="M115.6,12.2h-8.1v5.1h9.5v3.9h-14.6V0h14.7v4h-9.5v4.5h8.1V12.2z"/>
	<path d="M127,13.7h-2.8v7.5h-5.1V0h8.4c2.5,0,4.5,0.6,5.9,1.7c1.4,1.1,2.1,2.7,2.1,4.7c0,1.5-0.3,2.7-0.9,3.7s-1.5,1.8-2.8,2.4
		l4.4,8.6v0.2h-5.5L127,13.7z M124.2,9.8h3.2c1,0,1.7-0.3,2.2-0.8s0.7-1.2,0.7-2.1c0-0.9-0.2-1.6-0.7-2.2c-0.5-0.5-1.2-0.8-2.2-0.8
		h-3.2V9.8z"/>
	<path d="M145.7,9.2l3.9-9.2h5.5l-6.8,13.6v7.6h-5.2v-7.6L136.3,0h5.5L145.7,9.2z"/>
	<path d="M160.1,0l7.8,18.7L175.8,0h2.4v21.2h-1.8V12l0.1-9.5l-7.9,18.7h-1.4l-7.9-18.7l0.1,9.4v9.3h-1.8V0H160.1z"/>
	<path d="M219.9,21.2V0h5.9c1.7,0,3.3,0.4,4.7,1.2c1.4,0.8,2.5,1.9,3.2,3.4c0.8,1.5,1.2,3.2,1.2,5v2c0,1.9-0.4,3.6-1.2,5
		c-0.8,1.5-1.8,2.6-3.2,3.4c-1.4,0.8-3,1.2-4.8,1.2H219.9z M221.7,1.5v18.2h4c2.2,0,4-0.7,5.4-2.2c1.4-1.5,2-3.5,2-6V9.6
		c0-2.4-0.7-4.4-2-5.9c-1.3-1.5-3.1-2.2-5.3-2.2H221.7z"/>
</g>
<g>
	<g>
		<path fill="#010101" d="M209.8,21.2h-17.5c-5.8,0-10.5-4.7-10.5-10.5s4.7-10.5,10.5-10.5c2.8,0,5.5,1.1,7.4,3.1
			c0.2-0.3,0.3-0.7,0.6-1c1-1.3,2.6-2.1,4.2-2.1c2.9,0,5.2,2.4,5.2,5.2c0,0.6-0.1,1.2-0.3,1.8c0.1,0,0.2,0,0.3,0c3.8,0,7,3.1,7,7
			S213.7,21.2,209.8,21.2L209.8,21.2z M192.3,2c-4.8,0-8.7,3.9-8.7,8.7s3.9,8.7,8.7,8.7h17.5c2.9,0,5.2-2.3,5.2-5.2S212.7,9,209.8,9
			c-0.6,0-1.2,0.1-1.8,0.3c-0.4,0.1-0.8,0-1-0.3c-0.2-0.3-0.2-0.8,0.1-1.1c0.6-0.7,1-1.5,1-2.4c0-1.9-1.6-3.5-3.5-3.5
			c-1.1,0-2.1,0.5-2.8,1.4c-0.4,0.5-0.6,1.2-0.7,1.8c0,0.4-0.3,0.7-0.6,0.8c-0.4,0.1-0.7,0-1-0.3c-0.2-0.3-0.4-0.5-0.6-0.8
			C197.2,3.1,194.8,2,192.3,2L192.3,2z"/>
	</g>
</g>
<path fill="none" stroke="#000000" stroke-linecap="round" stroke-miterlimit="10" d="M186.2,10.9c1-4.1,5.1-6.6,9.2-5.6"/>
<path fill="none" stroke="#000000" stroke-linecap="round" stroke-miterlimit="10" d="M188.7,11.8c0.7-2.9,3.5-4.6,6.4-3.9"/>
<path fill="none" stroke="#000000" stroke-linecap="round" stroke-miterlimit="10" d="M191.3,12.9c0.4-1.6,2-2.5,3.5-2.2"/>
</svg>
